<mxfile host="app.diagrams.net" modified="2024-01-19T02:08:14.979Z" agent="Mozilla/5.0 (Windows NT 10.0; Win64; x64) AppleWebKit/537.36 (KHTML, like Gecko) Chrome/120.0.0.0 Safari/537.36" etag="TXGPhYc9nFXpF1OCwfdm" version="22.1.21" type="github">
  <diagram name="페이지-1" id="fEnY4iOkhv4XJhf2eD4B">
    <mxGraphModel dx="1304" dy="-351" grid="1" gridSize="10" guides="1" tooltips="1" connect="1" arrows="1" fold="1" page="1" pageScale="1" pageWidth="827" pageHeight="1169" math="0" shadow="0">
      <root>
        <mxCell id="0" />
        <mxCell id="1" parent="0" />
        <mxCell id="4ckRqdpDPiqs74uObfjG-1" value="" style="rounded=0;whiteSpace=wrap;html=1;" vertex="1" parent="1">
          <mxGeometry x="40" y="1206" width="730" height="546" as="geometry" />
        </mxCell>
        <mxCell id="4ckRqdpDPiqs74uObfjG-2" value="시작" style="strokeWidth=2;html=1;shape=mxgraph.flowchart.terminator;whiteSpace=wrap;" vertex="1" parent="1">
          <mxGeometry x="203" y="1246" width="80" height="50" as="geometry" />
        </mxCell>
        <mxCell id="4ckRqdpDPiqs74uObfjG-3" value="종료" style="strokeWidth=2;html=1;shape=mxgraph.flowchart.terminator;whiteSpace=wrap;" vertex="1" parent="1">
          <mxGeometry x="195" y="1656" width="80" height="50" as="geometry" />
        </mxCell>
        <mxCell id="4ckRqdpDPiqs74uObfjG-4" value="전압 인가&lt;br&gt;B+BATT, LATCH SEN, B+LDC = 13.8V" style="rounded=0;whiteSpace=wrap;html=1;align=left;" vertex="1" parent="1">
          <mxGeometry x="130" y="1326" width="226" height="60" as="geometry" />
        </mxCell>
        <mxCell id="4ckRqdpDPiqs74uObfjG-5" value="Jump OV Wake-up" style="rhombus;whiteSpace=wrap;html=1;" vertex="1" parent="1">
          <mxGeometry x="130" y="1486" width="210" height="80" as="geometry" />
        </mxCell>
        <mxCell id="4ckRqdpDPiqs74uObfjG-6" value="" style="endArrow=classic;html=1;rounded=0;exitX=0.5;exitY=1;exitDx=0;exitDy=0;entryX=0.5;entryY=0;entryDx=0;entryDy=0;" edge="1" parent="1" target="4ckRqdpDPiqs74uObfjG-5">
          <mxGeometry width="50" height="50" relative="1" as="geometry">
            <mxPoint x="235" y="1446" as="sourcePoint" />
            <mxPoint x="441" y="1406" as="targetPoint" />
          </mxGeometry>
        </mxCell>
        <mxCell id="4ckRqdpDPiqs74uObfjG-7" value="" style="endArrow=classic;html=1;rounded=0;exitX=0.5;exitY=1;exitDx=0;exitDy=0;exitPerimeter=0;entryX=0.5;entryY=0;entryDx=0;entryDy=0;" edge="1" parent="1" source="4ckRqdpDPiqs74uObfjG-2" target="4ckRqdpDPiqs74uObfjG-4">
          <mxGeometry width="50" height="50" relative="1" as="geometry">
            <mxPoint x="-31" y="1346" as="sourcePoint" />
            <mxPoint x="19" y="1296" as="targetPoint" />
          </mxGeometry>
        </mxCell>
        <mxCell id="4ckRqdpDPiqs74uObfjG-8" value="" style="endArrow=classic;html=1;rounded=0;exitX=0.5;exitY=1;exitDx=0;exitDy=0;entryX=0.5;entryY=0;entryDx=0;entryDy=0;entryPerimeter=0;" edge="1" parent="1" target="4ckRqdpDPiqs74uObfjG-3">
          <mxGeometry width="50" height="50" relative="1" as="geometry">
            <mxPoint x="235" y="1636" as="sourcePoint" />
            <mxPoint x="21" y="1586" as="targetPoint" />
          </mxGeometry>
        </mxCell>
        <mxCell id="4ckRqdpDPiqs74uObfjG-9" value="전압을 순차적으로 증가&lt;br&gt;B+LDC = 13.8v -&amp;gt; 14.0v -&amp;gt; 14.2v -&amp;gt; 14.4v" style="rounded=0;whiteSpace=wrap;html=1;align=left;" vertex="1" parent="1">
          <mxGeometry x="461" y="1486" width="270" height="60" as="geometry" />
        </mxCell>
        <mxCell id="4ckRqdpDPiqs74uObfjG-10" value="" style="endArrow=classic;html=1;rounded=0;exitX=1;exitY=0.5;exitDx=0;exitDy=0;entryX=-0.007;entryY=0.65;entryDx=0;entryDy=0;entryPerimeter=0;" edge="1" parent="1" source="4ckRqdpDPiqs74uObfjG-5" target="4ckRqdpDPiqs74uObfjG-9">
          <mxGeometry width="50" height="50" relative="1" as="geometry">
            <mxPoint x="471" y="1456" as="sourcePoint" />
            <mxPoint x="521" y="1406" as="targetPoint" />
          </mxGeometry>
        </mxCell>
        <mxCell id="4ckRqdpDPiqs74uObfjG-11" value="Jump OV Wake-up" style="rounded=0;whiteSpace=wrap;html=1;" vertex="1" parent="1">
          <mxGeometry x="70" y="1196" width="140" height="30" as="geometry" />
        </mxCell>
        <mxCell id="4ckRqdpDPiqs74uObfjG-12" value="sleep" style="rounded=0;whiteSpace=wrap;html=1;align=center;" vertex="1" parent="1">
          <mxGeometry x="192" y="1606" width="80" height="30" as="geometry" />
        </mxCell>
        <mxCell id="4ckRqdpDPiqs74uObfjG-13" value="" style="endArrow=classic;html=1;rounded=0;exitX=0.5;exitY=1;exitDx=0;exitDy=0;entryX=0.533;entryY=0.022;entryDx=0;entryDy=0;entryPerimeter=0;" edge="1" parent="1" source="4ckRqdpDPiqs74uObfjG-5" target="4ckRqdpDPiqs74uObfjG-12">
          <mxGeometry width="50" height="50" relative="1" as="geometry">
            <mxPoint x="32" y="1586" as="sourcePoint" />
            <mxPoint x="82" y="1536" as="targetPoint" />
          </mxGeometry>
        </mxCell>
        <mxCell id="4ckRqdpDPiqs74uObfjG-14" value="yes" style="text;html=1;strokeColor=none;fillColor=none;align=center;verticalAlign=middle;whiteSpace=wrap;rounded=0;" vertex="1" parent="1">
          <mxGeometry x="225" y="1566" width="60" height="30" as="geometry" />
        </mxCell>
        <mxCell id="4ckRqdpDPiqs74uObfjG-15" value="no" style="text;html=1;strokeColor=none;fillColor=none;align=center;verticalAlign=middle;whiteSpace=wrap;rounded=0;" vertex="1" parent="1">
          <mxGeometry x="312" y="1496" width="60" height="30" as="geometry" />
        </mxCell>
        <mxCell id="4ckRqdpDPiqs74uObfjG-16" value="" style="endArrow=classic;html=1;rounded=0;exitX=0.5;exitY=0;exitDx=0;exitDy=0;" edge="1" parent="1" source="4ckRqdpDPiqs74uObfjG-9">
          <mxGeometry width="50" height="50" relative="1" as="geometry">
            <mxPoint x="596" y="1486" as="sourcePoint" />
            <mxPoint x="398" y="1436" as="targetPoint" />
            <Array as="points">
              <mxPoint x="596" y="1436" />
            </Array>
          </mxGeometry>
        </mxCell>
        <mxCell id="4ckRqdpDPiqs74uObfjG-17" value="" style="endArrow=classic;html=1;rounded=0;exitX=0.5;exitY=1;exitDx=0;exitDy=0;entryX=0.453;entryY=0.025;entryDx=0;entryDy=0;entryPerimeter=0;" edge="1" parent="1" source="4ckRqdpDPiqs74uObfjG-4" target="4ckRqdpDPiqs74uObfjG-18">
          <mxGeometry width="50" height="50" relative="1" as="geometry">
            <mxPoint x="460" y="1396" as="sourcePoint" />
            <mxPoint x="243.55999999999995" y="1405.6999999999998" as="targetPoint" />
          </mxGeometry>
        </mxCell>
        <mxCell id="4ckRqdpDPiqs74uObfjG-18" value="CAN signal 확인 (Jumper OV Wake-Up&amp;nbsp;인식)&lt;br&gt;&lt;br&gt;*Jumper OV Wake-Up&amp;nbsp;Input&amp;nbsp;&lt;br&gt;(&lt;font color=&quot;#007fff&quot;&gt;P2_Tx_JUMPER_OV&lt;/font&gt;)" style="rounded=0;whiteSpace=wrap;html=1;align=left;" vertex="1" parent="1">
          <mxGeometry x="120" y="1402" width="270" height="60" as="geometry" />
        </mxCell>
        <mxCell id="4ckRqdpDPiqs74uObfjG-19" value="" style="rounded=0;whiteSpace=wrap;html=1;" vertex="1" parent="1">
          <mxGeometry x="40" y="1792" width="730" height="518" as="geometry" />
        </mxCell>
        <mxCell id="4ckRqdpDPiqs74uObfjG-20" value="시작" style="strokeWidth=2;html=1;shape=mxgraph.flowchart.terminator;whiteSpace=wrap;" vertex="1" parent="1">
          <mxGeometry x="203" y="1832" width="80" height="50" as="geometry" />
        </mxCell>
        <mxCell id="4ckRqdpDPiqs74uObfjG-21" value="종료" style="strokeWidth=2;html=1;shape=mxgraph.flowchart.terminator;whiteSpace=wrap;" vertex="1" parent="1">
          <mxGeometry x="195" y="2242" width="80" height="50" as="geometry" />
        </mxCell>
        <mxCell id="4ckRqdpDPiqs74uObfjG-22" value="전압 인가&lt;br&gt;B+BATT, LATCH SEN, B+LDC = 13.8V" style="rounded=0;whiteSpace=wrap;html=1;align=left;" vertex="1" parent="1">
          <mxGeometry x="130" y="1912" width="226" height="60" as="geometry" />
        </mxCell>
        <mxCell id="4ckRqdpDPiqs74uObfjG-23" value="Jump OV Off" style="rhombus;whiteSpace=wrap;html=1;" vertex="1" parent="1">
          <mxGeometry x="130" y="2072" width="210" height="80" as="geometry" />
        </mxCell>
        <mxCell id="4ckRqdpDPiqs74uObfjG-24" value="" style="endArrow=classic;html=1;rounded=0;exitX=0.5;exitY=1;exitDx=0;exitDy=0;entryX=0.5;entryY=0;entryDx=0;entryDy=0;" edge="1" parent="1" target="4ckRqdpDPiqs74uObfjG-23">
          <mxGeometry width="50" height="50" relative="1" as="geometry">
            <mxPoint x="235" y="2032" as="sourcePoint" />
            <mxPoint x="441" y="1992" as="targetPoint" />
          </mxGeometry>
        </mxCell>
        <mxCell id="4ckRqdpDPiqs74uObfjG-25" value="" style="endArrow=classic;html=1;rounded=0;exitX=0.5;exitY=1;exitDx=0;exitDy=0;exitPerimeter=0;entryX=0.5;entryY=0;entryDx=0;entryDy=0;" edge="1" parent="1" source="4ckRqdpDPiqs74uObfjG-20" target="4ckRqdpDPiqs74uObfjG-22">
          <mxGeometry width="50" height="50" relative="1" as="geometry">
            <mxPoint x="-31" y="1932" as="sourcePoint" />
            <mxPoint x="19" y="1882" as="targetPoint" />
          </mxGeometry>
        </mxCell>
        <mxCell id="4ckRqdpDPiqs74uObfjG-26" value="" style="endArrow=classic;html=1;rounded=0;exitX=0.5;exitY=1;exitDx=0;exitDy=0;entryX=0.5;entryY=0;entryDx=0;entryDy=0;entryPerimeter=0;" edge="1" parent="1" target="4ckRqdpDPiqs74uObfjG-21">
          <mxGeometry width="50" height="50" relative="1" as="geometry">
            <mxPoint x="235" y="2222" as="sourcePoint" />
            <mxPoint x="21" y="2172" as="targetPoint" />
          </mxGeometry>
        </mxCell>
        <mxCell id="4ckRqdpDPiqs74uObfjG-27" value="전압을 순차적으로 감소&lt;br style=&quot;border-color: var(--border-color);&quot;&gt;B+LDC = 14.4v -&amp;gt; 14.2v -&amp;gt; 14.0v" style="rounded=0;whiteSpace=wrap;html=1;align=left;" vertex="1" parent="1">
          <mxGeometry x="461" y="2072" width="270" height="60" as="geometry" />
        </mxCell>
        <mxCell id="4ckRqdpDPiqs74uObfjG-28" value="" style="endArrow=classic;html=1;rounded=0;exitX=1;exitY=0.5;exitDx=0;exitDy=0;entryX=-0.007;entryY=0.65;entryDx=0;entryDy=0;entryPerimeter=0;" edge="1" parent="1" source="4ckRqdpDPiqs74uObfjG-23" target="4ckRqdpDPiqs74uObfjG-27">
          <mxGeometry width="50" height="50" relative="1" as="geometry">
            <mxPoint x="471" y="2042" as="sourcePoint" />
            <mxPoint x="521" y="1992" as="targetPoint" />
          </mxGeometry>
        </mxCell>
        <mxCell id="4ckRqdpDPiqs74uObfjG-29" value="Jump OV Off" style="rounded=0;whiteSpace=wrap;html=1;" vertex="1" parent="1">
          <mxGeometry x="70" y="1782" width="140" height="30" as="geometry" />
        </mxCell>
        <mxCell id="4ckRqdpDPiqs74uObfjG-30" value="sleep" style="rounded=0;whiteSpace=wrap;html=1;align=center;" vertex="1" parent="1">
          <mxGeometry x="192" y="2192" width="80" height="30" as="geometry" />
        </mxCell>
        <mxCell id="4ckRqdpDPiqs74uObfjG-31" value="" style="endArrow=classic;html=1;rounded=0;exitX=0.5;exitY=1;exitDx=0;exitDy=0;entryX=0.533;entryY=0.022;entryDx=0;entryDy=0;entryPerimeter=0;" edge="1" parent="1" source="4ckRqdpDPiqs74uObfjG-23" target="4ckRqdpDPiqs74uObfjG-30">
          <mxGeometry width="50" height="50" relative="1" as="geometry">
            <mxPoint x="32" y="2172" as="sourcePoint" />
            <mxPoint x="82" y="2122" as="targetPoint" />
          </mxGeometry>
        </mxCell>
        <mxCell id="4ckRqdpDPiqs74uObfjG-32" value="yes" style="text;html=1;strokeColor=none;fillColor=none;align=center;verticalAlign=middle;whiteSpace=wrap;rounded=0;" vertex="1" parent="1">
          <mxGeometry x="225" y="2152" width="60" height="30" as="geometry" />
        </mxCell>
        <mxCell id="4ckRqdpDPiqs74uObfjG-33" value="no" style="text;html=1;strokeColor=none;fillColor=none;align=center;verticalAlign=middle;whiteSpace=wrap;rounded=0;" vertex="1" parent="1">
          <mxGeometry x="312" y="2082" width="60" height="30" as="geometry" />
        </mxCell>
        <mxCell id="4ckRqdpDPiqs74uObfjG-34" value="" style="endArrow=classic;html=1;rounded=0;exitX=0.5;exitY=0;exitDx=0;exitDy=0;" edge="1" parent="1" source="4ckRqdpDPiqs74uObfjG-27">
          <mxGeometry width="50" height="50" relative="1" as="geometry">
            <mxPoint x="596" y="2072" as="sourcePoint" />
            <mxPoint x="398" y="2022" as="targetPoint" />
            <Array as="points">
              <mxPoint x="596" y="2022" />
            </Array>
          </mxGeometry>
        </mxCell>
        <mxCell id="4ckRqdpDPiqs74uObfjG-35" value="" style="endArrow=classic;html=1;rounded=0;exitX=0.5;exitY=1;exitDx=0;exitDy=0;entryX=0.453;entryY=0.025;entryDx=0;entryDy=0;entryPerimeter=0;" edge="1" parent="1" source="4ckRqdpDPiqs74uObfjG-22" target="4ckRqdpDPiqs74uObfjG-36">
          <mxGeometry width="50" height="50" relative="1" as="geometry">
            <mxPoint x="460" y="1982" as="sourcePoint" />
            <mxPoint x="243.55999999999995" y="1991.6999999999998" as="targetPoint" />
          </mxGeometry>
        </mxCell>
        <mxCell id="4ckRqdpDPiqs74uObfjG-36" value="CAN signal 확인 (Jumper OV Wake-Up&amp;nbsp;인식)&lt;br style=&quot;border-color: var(--border-color);&quot;&gt;&lt;br style=&quot;border-color: var(--border-color);&quot;&gt;*Jumper OV Wake-Up&amp;nbsp;Input&amp;nbsp;&lt;br style=&quot;border-color: var(--border-color);&quot;&gt;(&lt;font style=&quot;border-color: var(--border-color);&quot; color=&quot;#007fff&quot;&gt;P2_Tx_JUMPER_OV&lt;/font&gt;)" style="rounded=0;whiteSpace=wrap;html=1;align=left;" vertex="1" parent="1">
          <mxGeometry x="120" y="1988" width="270" height="60" as="geometry" />
        </mxCell>
      </root>
    </mxGraphModel>
  </diagram>
</mxfile>
